<mxfile host="app.diagrams.net" agent="Mozilla/5.0 (Windows NT 10.0; Win64; x64) AppleWebKit/537.36 (KHTML, like Gecko) Chrome/138.0.0.0 Safari/537.36 Edg/138.0.0.0" version="27.2.0">
  <diagram name="Page-1" id="7Li4XEzcXE7XpgJw0n9r">
    <mxGraphModel grid="1" page="1" gridSize="10" guides="1" tooltips="1" connect="0" arrows="0" fold="1" pageScale="1" pageWidth="1500" pageHeight="1024" math="0" shadow="0">
      <root>
        <mxCell id="0" />
        <mxCell id="1" parent="0" />
        <mxCell id="i0XiR1L-IUty-hpjOwD0-3" value="" style="swimlane;startSize=0;direction=south;" vertex="1" parent="1">
          <mxGeometry x="40" y="160" width="350" height="500" as="geometry">
            <mxRectangle x="260" y="90" width="50" height="40" as="alternateBounds" />
          </mxGeometry>
        </mxCell>
        <mxCell id="i0XiR1L-IUty-hpjOwD0-11" value="" style="sketch=0;pointerEvents=1;shadow=0;dashed=0;html=1;strokeColor=none;fillColor=#505050;labelPosition=center;verticalLabelPosition=bottom;verticalAlign=top;outlineConnect=0;align=center;shape=mxgraph.office.servers.domain_controller;" vertex="1" parent="i0XiR1L-IUty-hpjOwD0-3">
          <mxGeometry x="82.5" y="200" width="57.5" height="70" as="geometry" />
        </mxCell>
        <mxCell id="i0XiR1L-IUty-hpjOwD0-12" value="" style="sketch=0;pointerEvents=1;shadow=0;dashed=0;html=1;strokeColor=none;fillColor=#505050;labelPosition=center;verticalLabelPosition=bottom;verticalAlign=top;outlineConnect=0;align=center;shape=mxgraph.office.servers.domain_controller;" vertex="1" parent="i0XiR1L-IUty-hpjOwD0-3">
          <mxGeometry x="210" y="200" width="57.5" height="70" as="geometry" />
        </mxCell>
        <mxCell id="i0XiR1L-IUty-hpjOwD0-15" value="" style="sketch=0;pointerEvents=1;shadow=0;dashed=0;html=1;strokeColor=none;fillColor=#505050;labelPosition=center;verticalLabelPosition=bottom;verticalAlign=top;outlineConnect=0;align=center;shape=mxgraph.office.devices.workstation_pc;" vertex="1" parent="i0XiR1L-IUty-hpjOwD0-3">
          <mxGeometry x="23.5" y="370" width="53" height="59" as="geometry" />
        </mxCell>
        <mxCell id="i0XiR1L-IUty-hpjOwD0-16" value="" style="sketch=0;pointerEvents=1;shadow=0;dashed=0;html=1;strokeColor=none;fillColor=#505050;labelPosition=center;verticalLabelPosition=bottom;verticalAlign=top;outlineConnect=0;align=center;shape=mxgraph.office.devices.workstation_pc;" vertex="1" parent="i0XiR1L-IUty-hpjOwD0-3">
          <mxGeometry x="193.5" y="370" width="53" height="59" as="geometry" />
        </mxCell>
        <mxCell id="i0XiR1L-IUty-hpjOwD0-17" value="" style="sketch=0;pointerEvents=1;shadow=0;dashed=0;html=1;strokeColor=none;fillColor=#505050;labelPosition=center;verticalLabelPosition=bottom;verticalAlign=top;outlineConnect=0;align=center;shape=mxgraph.office.devices.workstation_pc;" vertex="1" parent="i0XiR1L-IUty-hpjOwD0-3">
          <mxGeometry x="273.5" y="370" width="53" height="59" as="geometry" />
        </mxCell>
        <mxCell id="i0XiR1L-IUty-hpjOwD0-27" value="" style="sketch=0;pointerEvents=1;shadow=0;dashed=0;html=1;strokeColor=none;fillColor=#505050;labelPosition=center;verticalLabelPosition=bottom;verticalAlign=top;outlineConnect=0;align=center;shape=mxgraph.office.devices.workstation_pc;" vertex="1" parent="i0XiR1L-IUty-hpjOwD0-3">
          <mxGeometry x="113.5" y="370" width="53" height="59" as="geometry" />
        </mxCell>
        <mxCell id="i0XiR1L-IUty-hpjOwD0-39" value="" style="sketch=0;aspect=fixed;pointerEvents=1;shadow=0;dashed=0;html=1;strokeColor=none;labelPosition=center;verticalLabelPosition=bottom;verticalAlign=top;align=center;fillColor=#00188D;shape=mxgraph.mscae.enterprise.gateway" vertex="1" parent="i0XiR1L-IUty-hpjOwD0-3">
          <mxGeometry x="136" y="60" width="65" height="65" as="geometry" />
        </mxCell>
        <mxCell id="i0XiR1L-IUty-hpjOwD0-74" value="" style="edgeStyle=none;orthogonalLoop=1;jettySize=auto;html=1;endArrow=classic;startArrow=classic;endSize=8;startSize=8;rounded=0;strokeColor=default;strokeWidth=3;align=center;verticalAlign=middle;fontFamily=Helvetica;fontSize=12;fontColor=#ffffff;labelBackgroundColor=default;entryX=0.033;entryY=0.448;entryDx=0;entryDy=0;entryPerimeter=0;" edge="1" parent="i0XiR1L-IUty-hpjOwD0-3">
          <mxGeometry width="100" relative="1" as="geometry">
            <mxPoint x="201" y="91.61999999999999" as="sourcePoint" />
            <mxPoint x="603.98" y="91.5000000000001" as="targetPoint" />
            <Array as="points" />
          </mxGeometry>
        </mxCell>
        <mxCell id="rgwqZH28_eskB4CYeROk-5" value="&lt;div&gt;&lt;font style=&quot;font-size: 21px;&quot;&gt;AD DS servers&lt;/font&gt;&lt;/div&gt;" style="text;html=1;align=center;verticalAlign=middle;resizable=0;points=[];autosize=1;strokeColor=none;fillColor=none;fontFamily=Helvetica;fontSize=20;fontColor=default;" vertex="1" parent="i0XiR1L-IUty-hpjOwD0-3">
          <mxGeometry x="95" y="280" width="160" height="40" as="geometry" />
        </mxCell>
        <mxCell id="rgwqZH28_eskB4CYeROk-7" value="&lt;div&gt;&lt;font style=&quot;font-size: 21px;&quot;&gt;Gateway&lt;/font&gt;&lt;/div&gt;" style="text;html=1;align=center;verticalAlign=middle;resizable=0;points=[];autosize=1;strokeColor=none;fillColor=none;fontFamily=Helvetica;fontSize=20;fontColor=default;" vertex="1" parent="i0XiR1L-IUty-hpjOwD0-3">
          <mxGeometry x="113.5" y="129.99999999999997" width="110" height="40" as="geometry" />
        </mxCell>
        <mxCell id="rgwqZH28_eskB4CYeROk-8" value="&lt;div&gt;&lt;font style=&quot;font-size: 21px;&quot;&gt;Windows clients&lt;/font&gt;&lt;/div&gt;" style="text;html=1;align=center;verticalAlign=middle;resizable=0;points=[];autosize=1;strokeColor=none;fillColor=none;fontFamily=Helvetica;fontSize=20;fontColor=default;" vertex="1" parent="i0XiR1L-IUty-hpjOwD0-3">
          <mxGeometry x="90" y="440" width="170" height="40" as="geometry" />
        </mxCell>
        <mxCell id="i0XiR1L-IUty-hpjOwD0-28" value="c" style="swimlane;startSize=0;direction=south;fontSize=12;" vertex="1" parent="1">
          <mxGeometry x="540" y="60" width="945" height="870" as="geometry">
            <mxRectangle x="260" y="90" width="50" height="40" as="alternateBounds" />
          </mxGeometry>
        </mxCell>
        <mxCell id="i0XiR1L-IUty-hpjOwD0-40" value="" style="swimlane;startSize=0;" vertex="1" parent="i0XiR1L-IUty-hpjOwD0-28">
          <mxGeometry x="59" y="480" width="170" height="306" as="geometry" />
        </mxCell>
        <mxCell id="i0XiR1L-IUty-hpjOwD0-44" value="" style="image;aspect=fixed;html=1;points=[];align=center;fontSize=12;image=img/lib/azure2/networking/Bastions.svg;" vertex="1" parent="i0XiR1L-IUty-hpjOwD0-40">
          <mxGeometry x="38.08" y="74" width="93.83" height="110" as="geometry" />
        </mxCell>
        <mxCell id="i0XiR1L-IUty-hpjOwD0-42" value="" style="swimlane;startSize=0;" vertex="1" parent="i0XiR1L-IUty-hpjOwD0-28">
          <mxGeometry x="380" y="70" width="369.5" height="300" as="geometry" />
        </mxCell>
        <mxCell id="i0XiR1L-IUty-hpjOwD0-58" value="" style="image;aspect=fixed;html=1;points=[];align=center;fontSize=12;image=img/lib/azure2/networking/Network_Security_Groups.svg;" vertex="1" parent="i0XiR1L-IUty-hpjOwD0-42">
          <mxGeometry x="-19.99999999999995" y="-20" width="41.18" height="50" as="geometry" />
        </mxCell>
        <mxCell id="i0XiR1L-IUty-hpjOwD0-60" value="" style="image;aspect=fixed;html=1;points=[];align=center;fontSize=12;image=img/lib/azure2/compute/Virtual_Machine.svg;" vertex="1" parent="i0XiR1L-IUty-hpjOwD0-42">
          <mxGeometry x="250" y="161" width="69" height="64" as="geometry" />
        </mxCell>
        <mxCell id="i0XiR1L-IUty-hpjOwD0-61" value="" style="image;aspect=fixed;html=1;points=[];align=center;fontSize=12;image=img/lib/azure2/compute/Virtual_Machine.svg;" vertex="1" parent="i0XiR1L-IUty-hpjOwD0-42">
          <mxGeometry x="250" y="30" width="69" height="64" as="geometry" />
        </mxCell>
        <mxCell id="i0XiR1L-IUty-hpjOwD0-63" value="" style="image;aspect=fixed;html=1;points=[];align=center;fontSize=12;image=img/lib/azure2/networking/Local_Network_Gateways.svg;" vertex="1" parent="i0XiR1L-IUty-hpjOwD0-42">
          <mxGeometry x="60" y="80" width="90" height="90" as="geometry" />
        </mxCell>
        <mxCell id="IRD0aF9I99jayWF57l2c-14" value="" style="endArrow=classic;html=1;rounded=0;strokeColor=default;strokeWidth=3;align=center;verticalAlign=middle;fontFamily=Helvetica;fontSize=12;fontColor=#ffffff;labelBackgroundColor=default;edgeStyle=none;startSize=8;endSize=8;" edge="1" parent="i0XiR1L-IUty-hpjOwD0-42">
          <mxGeometry width="50" height="50" relative="1" as="geometry">
            <mxPoint x="140" y="149.99823529411756" as="sourcePoint" />
            <mxPoint x="242" y="180.16261885576105" as="targetPoint" />
          </mxGeometry>
        </mxCell>
        <mxCell id="IRD0aF9I99jayWF57l2c-17" value="" style="endArrow=classic;html=1;rounded=0;strokeColor=default;strokeWidth=3;align=center;verticalAlign=middle;fontFamily=Helvetica;fontSize=12;fontColor=#ffffff;labelBackgroundColor=default;edgeStyle=none;startSize=8;endSize=8;entryX=-0.033;entryY=0.486;entryDx=0;entryDy=0;entryPerimeter=0;" edge="1" parent="i0XiR1L-IUty-hpjOwD0-42" target="i0XiR1L-IUty-hpjOwD0-61">
          <mxGeometry width="50" height="50" relative="1" as="geometry">
            <mxPoint x="140" y="99.84" as="sourcePoint" />
            <mxPoint x="230" y="70" as="targetPoint" />
          </mxGeometry>
        </mxCell>
        <mxCell id="rgwqZH28_eskB4CYeROk-2" value="&lt;div&gt;&lt;font&gt;Virtual machine&lt;/font&gt;&lt;/div&gt;" style="text;html=1;align=center;verticalAlign=middle;resizable=0;points=[];autosize=1;strokeColor=none;fillColor=none;fontFamily=Helvetica;fontSize=21;fontColor=default;" vertex="1" parent="i0XiR1L-IUty-hpjOwD0-42">
          <mxGeometry x="199.5" y="93.99999999999997" width="170" height="40" as="geometry" />
        </mxCell>
        <mxCell id="rgwqZH28_eskB4CYeROk-3" value="&lt;div&gt;&lt;font&gt;Virtual machine&lt;/font&gt;&lt;/div&gt;" style="text;html=1;align=center;verticalAlign=middle;resizable=0;points=[];autosize=1;strokeColor=none;fillColor=none;fontFamily=Helvetica;fontSize=21;fontColor=default;" vertex="1" parent="i0XiR1L-IUty-hpjOwD0-42">
          <mxGeometry x="199.5" y="219.99999999999997" width="170" height="40" as="geometry" />
        </mxCell>
        <mxCell id="i0XiR1L-IUty-hpjOwD0-43" value="" style="swimlane;startSize=0;" vertex="1" parent="i0XiR1L-IUty-hpjOwD0-28">
          <mxGeometry x="380" y="480" width="440" height="310" as="geometry" />
        </mxCell>
        <mxCell id="i0XiR1L-IUty-hpjOwD0-45" value="" style="image;aspect=fixed;html=1;points=[];align=center;fontSize=12;image=img/lib/azure2/identity/Azure_AD_Domain_Services.svg;" vertex="1" parent="i0XiR1L-IUty-hpjOwD0-43">
          <mxGeometry x="190" y="50" width="98.44" height="90" as="geometry" />
        </mxCell>
        <mxCell id="i0XiR1L-IUty-hpjOwD0-46" value="" style="image;aspect=fixed;html=1;points=[];align=center;fontSize=12;image=img/lib/azure2/identity/Azure_AD_Domain_Services.svg;" vertex="1" parent="i0XiR1L-IUty-hpjOwD0-43">
          <mxGeometry x="310" y="50" width="98.44" height="90" as="geometry" />
        </mxCell>
        <mxCell id="i0XiR1L-IUty-hpjOwD0-57" value="" style="image;aspect=fixed;html=1;points=[];align=center;fontSize=12;image=img/lib/azure2/networking/Network_Security_Groups.svg;" vertex="1" parent="i0XiR1L-IUty-hpjOwD0-43">
          <mxGeometry x="-20" y="-26" width="41.18" height="50" as="geometry" />
        </mxCell>
        <mxCell id="rgwqZH28_eskB4CYeROk-4" value="&lt;div&gt;&lt;font style=&quot;font-size: 21px;&quot;&gt;AD DS servers&lt;/font&gt;&lt;/div&gt;" style="text;html=1;align=center;verticalAlign=middle;resizable=0;points=[];autosize=1;strokeColor=none;fillColor=none;fontFamily=Helvetica;fontSize=20;fontColor=default;" vertex="1" parent="i0XiR1L-IUty-hpjOwD0-43">
          <mxGeometry x="230" y="150" width="160" height="40" as="geometry" />
        </mxCell>
        <mxCell id="i0XiR1L-IUty-hpjOwD0-49" value="" style="image;aspect=fixed;html=1;points=[];align=center;fontSize=12;image=img/lib/azure2/networking/Subnet.svg;" vertex="1" parent="i0XiR1L-IUty-hpjOwD0-28">
          <mxGeometry x="59" y="374.63999999999993" width="51.3" height="30.72" as="geometry" />
        </mxCell>
        <mxCell id="i0XiR1L-IUty-hpjOwD0-50" value="" style="image;aspect=fixed;html=1;points=[];align=center;fontSize=12;image=img/lib/azure2/networking/Subnet.svg;" vertex="1" parent="i0XiR1L-IUty-hpjOwD0-28">
          <mxGeometry x="490" y="380.71999999999997" width="51.3" height="30.72" as="geometry" />
        </mxCell>
        <mxCell id="i0XiR1L-IUty-hpjOwD0-53" value="" style="swimlane;startSize=0;" vertex="1" parent="i0XiR1L-IUty-hpjOwD0-28">
          <mxGeometry x="59" y="70" width="170" height="300" as="geometry" />
        </mxCell>
        <mxCell id="i0XiR1L-IUty-hpjOwD0-75" value="" style="sketch=0;aspect=fixed;pointerEvents=1;shadow=0;dashed=0;html=1;strokeColor=none;labelPosition=center;verticalLabelPosition=bottom;verticalAlign=top;align=center;fillColor=#00188D;shape=mxgraph.mscae.enterprise.gateway" vertex="1" parent="i0XiR1L-IUty-hpjOwD0-53">
          <mxGeometry x="52.5" y="92.5" width="65" height="65" as="geometry" />
        </mxCell>
        <mxCell id="rgwqZH28_eskB4CYeROk-6" value="&lt;div&gt;&lt;font style=&quot;font-size: 21px;&quot;&gt;Gateway&lt;/font&gt;&lt;/div&gt;" style="text;html=1;align=center;verticalAlign=middle;resizable=0;points=[];autosize=1;strokeColor=none;fillColor=none;fontFamily=Helvetica;fontSize=20;fontColor=default;" vertex="1" parent="i0XiR1L-IUty-hpjOwD0-53">
          <mxGeometry x="30" y="159.99999999999997" width="110" height="40" as="geometry" />
        </mxCell>
        <mxCell id="i0XiR1L-IUty-hpjOwD0-55" value="" style="image;aspect=fixed;html=1;points=[];align=center;fontSize=12;image=img/lib/azure2/networking/Subnet.svg;" vertex="1" parent="i0XiR1L-IUty-hpjOwD0-28">
          <mxGeometry x="59" y="804.64" width="51.3" height="30.72" as="geometry" />
        </mxCell>
        <mxCell id="i0XiR1L-IUty-hpjOwD0-51" value="" style="image;aspect=fixed;html=1;points=[];align=center;fontSize=12;image=img/lib/azure2/networking/Subnet.svg;" vertex="1" parent="i0XiR1L-IUty-hpjOwD0-28">
          <mxGeometry x="609.9" y="805" width="50.1" height="30" as="geometry" />
        </mxCell>
        <mxCell id="i0XiR1L-IUty-hpjOwD0-56" value="" style="image;aspect=fixed;html=1;points=[];align=center;fontSize=12;image=img/lib/azure2/networking/Network_Security_Groups.svg;" vertex="1" parent="i0XiR1L-IUty-hpjOwD0-28">
          <mxGeometry x="39" y="470" width="41.18" height="50" as="geometry" />
        </mxCell>
        <mxCell id="IRD0aF9I99jayWF57l2c-2" value="&lt;div&gt;&lt;font style=&quot;font-size: 21px;&quot;&gt;Management subnet&lt;/font&gt;&lt;/div&gt;" style="text;html=1;align=center;verticalAlign=middle;resizable=0;points=[];autosize=1;strokeColor=none;fillColor=none;fontFamily=Helvetica;fontSize=20;fontColor=default;" vertex="1" parent="i0XiR1L-IUty-hpjOwD0-28">
          <mxGeometry x="110.3" y="800" width="210" height="40" as="geometry" />
        </mxCell>
        <mxCell id="IRD0aF9I99jayWF57l2c-3" value="&lt;div&gt;&lt;font style=&quot;font-size: 21px;&quot;&gt;AD DS subnet&lt;/font&gt;&lt;/div&gt;" style="text;html=1;align=center;verticalAlign=middle;resizable=0;points=[];autosize=1;strokeColor=none;fillColor=none;fontFamily=Helvetica;fontSize=20;fontColor=default;" vertex="1" parent="i0XiR1L-IUty-hpjOwD0-28">
          <mxGeometry x="660" y="800" width="160" height="40" as="geometry" />
        </mxCell>
        <mxCell id="IRD0aF9I99jayWF57l2c-4" value="&lt;div&gt;&lt;font style=&quot;font-size: 21px;&quot;&gt;Gateway subnet&lt;/font&gt;&lt;/div&gt;" style="text;html=1;align=center;verticalAlign=middle;resizable=0;points=[];autosize=1;strokeColor=none;fillColor=none;fontFamily=Helvetica;fontSize=20;fontColor=default;" vertex="1" parent="i0XiR1L-IUty-hpjOwD0-28">
          <mxGeometry x="100" y="369.99999999999994" width="180" height="40" as="geometry" />
        </mxCell>
        <mxCell id="IRD0aF9I99jayWF57l2c-6" value="&lt;div&gt;&lt;font&gt;Application subnet&lt;/font&gt;&lt;/div&gt;" style="text;html=1;align=center;verticalAlign=middle;resizable=0;points=[];autosize=1;strokeColor=none;fillColor=none;fontFamily=Helvetica;fontSize=21;fontColor=default;" vertex="1" parent="i0XiR1L-IUty-hpjOwD0-28">
          <mxGeometry x="534.9499999999999" y="376.08" width="200" height="40" as="geometry" />
        </mxCell>
        <mxCell id="IRD0aF9I99jayWF57l2c-8" value="" style="edgeStyle=segmentEdgeStyle;endArrow=classic;html=1;curved=0;rounded=0;endSize=8;startSize=8;sourcePerimeterSpacing=0;targetPerimeterSpacing=0;strokeColor=default;strokeWidth=3;align=center;verticalAlign=middle;fontFamily=Helvetica;fontSize=12;fontColor=#ffffff;labelBackgroundColor=default;entryX=1.001;entryY=0.394;entryDx=0;entryDy=0;entryPerimeter=0;" edge="1" parent="i0XiR1L-IUty-hpjOwD0-28" target="i0XiR1L-IUty-hpjOwD0-43">
          <mxGeometry width="100" relative="1" as="geometry">
            <mxPoint x="749" y="220" as="sourcePoint" />
            <mxPoint x="880" y="260" as="targetPoint" />
            <Array as="points">
              <mxPoint x="910" y="220" />
              <mxPoint x="910" y="602" />
            </Array>
          </mxGeometry>
        </mxCell>
        <mxCell id="IRD0aF9I99jayWF57l2c-9" value="&lt;div&gt;&lt;font&gt;Authentication&amp;nbsp;&lt;/font&gt;&lt;/div&gt;&lt;div&gt;&lt;span style=&quot;background-color: transparent; color: light-dark(rgb(0, 0, 0), rgb(255, 255, 255));&quot;&gt;request&lt;/span&gt;&lt;/div&gt;" style="text;html=1;align=center;verticalAlign=middle;resizable=0;points=[];autosize=1;strokeColor=none;fillColor=none;fontFamily=Helvetica;fontSize=21;fontColor=default;" vertex="1" parent="i0XiR1L-IUty-hpjOwD0-28">
          <mxGeometry x="760" y="160.00000000000003" width="160" height="60" as="geometry" />
        </mxCell>
        <mxCell id="IRD0aF9I99jayWF57l2c-10" value="&lt;div&gt;&lt;font&gt;NSG&lt;/font&gt;&lt;/div&gt;" style="text;html=1;align=center;verticalAlign=middle;resizable=0;points=[];autosize=1;strokeColor=none;fillColor=none;fontFamily=Helvetica;fontSize=21;fontColor=default;" vertex="1" parent="i0XiR1L-IUty-hpjOwD0-28">
          <mxGeometry x="350" y="10" width="70" height="40" as="geometry" />
        </mxCell>
        <mxCell id="IRD0aF9I99jayWF57l2c-11" value="&lt;div&gt;&lt;font&gt;NSG&lt;/font&gt;&lt;/div&gt;" style="text;html=1;align=center;verticalAlign=middle;resizable=0;points=[];autosize=1;strokeColor=none;fillColor=none;fontFamily=Helvetica;fontSize=21;fontColor=default;" vertex="1" parent="i0XiR1L-IUty-hpjOwD0-28">
          <mxGeometry x="340" y="416.08" width="70" height="40" as="geometry" />
        </mxCell>
        <mxCell id="IRD0aF9I99jayWF57l2c-12" value="&lt;div&gt;&lt;font&gt;NSG&lt;/font&gt;&lt;/div&gt;" style="text;html=1;align=center;verticalAlign=middle;resizable=0;points=[];autosize=1;strokeColor=none;fillColor=none;fontFamily=Helvetica;fontSize=21;fontColor=default;" vertex="1" parent="i0XiR1L-IUty-hpjOwD0-28">
          <mxGeometry x="24.589999999999975" y="432" width="70" height="40" as="geometry" />
        </mxCell>
        <mxCell id="rgwqZH28_eskB4CYeROk-11" value="" style="edgeStyle=none;orthogonalLoop=1;jettySize=auto;html=1;rounded=0;fontFamily=Helvetica;fontSize=12;fontColor=#ffffff;strokeWidth=3;" edge="1" parent="i0XiR1L-IUty-hpjOwD0-28">
          <mxGeometry width="80" relative="1" as="geometry">
            <mxPoint x="180" y="190.0000000000001" as="sourcePoint" />
            <mxPoint x="370" y="190" as="targetPoint" />
            <Array as="points" />
          </mxGeometry>
        </mxCell>
        <mxCell id="i0XiR1L-IUty-hpjOwD0-47" value="" style="image;aspect=fixed;html=1;points=[];align=center;fontSize=12;image=img/lib/azure2/networking/Virtual_Networks.svg;" vertex="1" parent="1">
          <mxGeometry x="540" y="950" width="67" height="40" as="geometry" />
        </mxCell>
        <mxCell id="i0XiR1L-IUty-hpjOwD0-52" value="" style="image;aspect=fixed;html=1;points=[];align=center;fontSize=12;image=img/lib/azure2/general/Management_Portal.svg;" vertex="1" parent="1">
          <mxGeometry x="260" y="757.5" width="60" height="48" as="geometry" />
        </mxCell>
        <mxCell id="i0XiR1L-IUty-hpjOwD0-62" value="" style="image;aspect=fixed;html=1;points=[];align=center;fontSize=12;image=img/lib/azure2/networking/Public_IP_Addresses.svg;" vertex="1" parent="1">
          <mxGeometry x="420" y="755.5" width="65" height="52" as="geometry" />
        </mxCell>
        <mxCell id="i0XiR1L-IUty-hpjOwD0-66" value="" style="image;aspect=fixed;perimeter=ellipsePerimeter;html=1;align=center;shadow=0;dashed=0;spacingTop=3;image=img/lib/active_directory/internet_cloud.svg;" vertex="1" parent="1">
          <mxGeometry x="50" y="744.5" width="117.46" height="74" as="geometry" />
        </mxCell>
        <mxCell id="i0XiR1L-IUty-hpjOwD0-67" value="" style="edgeStyle=none;orthogonalLoop=1;jettySize=auto;html=1;rounded=0;fontFamily=Helvetica;fontSize=12;fontColor=#ffffff;strokeWidth=3;" edge="1" parent="1">
          <mxGeometry width="80" relative="1" as="geometry">
            <mxPoint x="167.46000000000004" y="780.6700000000001" as="sourcePoint" />
            <mxPoint x="247.46000000000004" y="780.6700000000001" as="targetPoint" />
            <Array as="points" />
          </mxGeometry>
        </mxCell>
        <mxCell id="i0XiR1L-IUty-hpjOwD0-68" value="" style="edgeStyle=none;orthogonalLoop=1;jettySize=auto;html=1;rounded=0;fontFamily=Helvetica;fontSize=12;fontColor=#ffffff;strokeWidth=3;" edge="1" parent="1">
          <mxGeometry width="80" relative="1" as="geometry">
            <mxPoint x="320" y="780.6700000000001" as="sourcePoint" />
            <mxPoint x="410" y="781" as="targetPoint" />
            <Array as="points" />
          </mxGeometry>
        </mxCell>
        <mxCell id="i0XiR1L-IUty-hpjOwD0-70" value="" style="orthogonalLoop=1;jettySize=auto;html=1;rounded=0;strokeColor=default;strokeWidth=3;align=center;verticalAlign=middle;fontFamily=Helvetica;fontSize=12;fontColor=#ffffff;labelBackgroundColor=default;endArrow=classic;" edge="1" parent="1">
          <mxGeometry width="80" relative="1" as="geometry">
            <mxPoint x="490" y="780" as="sourcePoint" />
            <mxPoint x="600" y="780" as="targetPoint" />
          </mxGeometry>
        </mxCell>
        <mxCell id="IRD0aF9I99jayWF57l2c-1" value="&lt;font style=&quot;font-size: 21px;&quot;&gt;Azure Bastion&lt;/font&gt;" style="text;html=1;align=center;verticalAlign=middle;resizable=0;points=[];autosize=1;strokeColor=none;fillColor=none;strokeWidth=1;" vertex="1" parent="1">
          <mxGeometry x="605" y="753" width="150" height="40" as="geometry" />
        </mxCell>
        <mxCell id="IRD0aF9I99jayWF57l2c-19" value="&lt;div&gt;&lt;font style=&quot;font-size: 21px;&quot;&gt;On-premises network&lt;/font&gt;&lt;/div&gt;" style="text;html=1;align=center;verticalAlign=middle;resizable=0;points=[];autosize=1;strokeColor=none;fillColor=none;fontFamily=Helvetica;fontSize=20;fontColor=default;" vertex="1" parent="1">
          <mxGeometry x="95.00000000000006" y="110" width="220" height="40" as="geometry" />
        </mxCell>
        <mxCell id="rgwqZH28_eskB4CYeROk-1" value="&lt;div&gt;&lt;font style=&quot;font-size: 21px;&quot;&gt;Azure Virtual Network&lt;/font&gt;&lt;/div&gt;" style="text;html=1;align=center;verticalAlign=middle;resizable=0;points=[];autosize=1;strokeColor=none;fillColor=none;fontFamily=Helvetica;fontSize=20;fontColor=default;" vertex="1" parent="1">
          <mxGeometry x="599" y="950" width="230" height="40" as="geometry" />
        </mxCell>
        <mxCell id="rgwqZH28_eskB4CYeROk-12" value="&lt;div&gt;&lt;font style=&quot;font-size: 21px;&quot;&gt;Internet&lt;/font&gt;&lt;/div&gt;" style="text;html=1;align=center;verticalAlign=middle;resizable=0;points=[];autosize=1;strokeColor=none;fillColor=none;fontFamily=Helvetica;fontSize=20;fontColor=default;" vertex="1" parent="1">
          <mxGeometry x="70" y="830" width="90" height="40" as="geometry" />
        </mxCell>
        <mxCell id="rgwqZH28_eskB4CYeROk-13" value="&lt;div&gt;&lt;font style=&quot;font-size: 21px;&quot;&gt;Azure portal&lt;/font&gt;&lt;/div&gt;" style="text;html=1;align=center;verticalAlign=middle;resizable=0;points=[];autosize=1;strokeColor=none;fillColor=none;fontFamily=Helvetica;fontSize=20;fontColor=default;" vertex="1" parent="1">
          <mxGeometry x="220" y="830" width="140" height="40" as="geometry" />
        </mxCell>
        <mxCell id="rgwqZH28_eskB4CYeROk-14" value="&lt;div&gt;&lt;font style=&quot;font-size: 21px;&quot;&gt;Public IP&lt;/font&gt;&lt;/div&gt;" style="text;html=1;align=center;verticalAlign=middle;resizable=0;points=[];autosize=1;strokeColor=none;fillColor=none;fontFamily=Helvetica;fontSize=20;fontColor=default;" vertex="1" parent="1">
          <mxGeometry x="397.5" y="830" width="110" height="40" as="geometry" />
        </mxCell>
      </root>
    </mxGraphModel>
  </diagram>
</mxfile>
